<svg viewBox="0 0 50 52" xmlns="http://www.w3.org/2000/svg"><path d="M49.626 11.564a.809.809 0 01.028.209v10.972a.8.8 0 01-.402.694l-9.209 5.302V39.25c0 .286-.152.55-.4.694L20.42 51.01c-.044.025-.092.041-.14.058-.018.006-.035.017-.054.022a.805.805 0 01-.41 0c-.022-.006-.042-.018-.063-.026-.044-.016-.09-.03-.132-.054L.402 39.944A.801.801 0 010 39.25V6.334c0-.072.01-.142.028-.21.006-.023.02-.044.028-.067.015-.042.029-.085.051-.124.015-.026.037-.047.055-.071.023-.032.044-.065.071-.093.023-.023.053-.04.079-.06.029-.024.055-.05.088-.069h.001l9.61-5.533a.802.802 0 01.8 0l9.61 5.533h.002c.032.02.059.045.088.068.026.02.055.038.078.06.028.029.048.062.072.094.017.024.04.045.054.071.023.04.036.082.052.124.008.023.022.044.028.068a.809.809 0 01.028.209v20.559l8.008-4.611v-10.51c0-.07.01-.141.028-.208.007-.024.02-.045.028-.068.016-.042.03-.085.052-.124.015-.026.037-.047.054-.071.024-.032.044-.065.072-.093.023-.023.052-.04.078-.06.03-.024.056-.05.088-.069h.001l9.611-5.533a.801.801 0 01.8 0l9.61 5.533c.034.02.06.045.09.068.025.02.054.038.077.06.028.029.048.062.072.094.018.024.04.045.054.071.023.039.036.082.052.124.009.023.022.044.028.068zm-1.574 10.718V12.89l-3.363 1.936-4.646 2.675v9.393l8.01-4.612zm-9.61 16.505v-9.405l-4.567 2.61-12.844 7.34v9.476l17.41-10.02zM1.602 7.267v31.51L19.012 48.8v-9.477l-9.205-5.228-.006-.004-.003-.002c-.031-.018-.057-.044-.086-.066-.025-.02-.054-.036-.076-.058l-.002-.003c-.026-.025-.044-.056-.066-.084-.02-.027-.044-.05-.06-.078l-.001-.003c-.018-.03-.029-.066-.042-.1-.013-.03-.03-.058-.038-.09v-.001c-.01-.038-.012-.078-.016-.117-.004-.03-.012-.06-.012-.09V12.88l-4.645-2.674L1.602 7.267zm8.81-5.154L2.4 6.334l8.01 4.612 8.01-4.612-8.008-4.621zm4.164 28.764l4.645-2.674V7.267l-3.363 1.936-4.646 2.675v21.63l3.364-1.937zM39.243 7.265l-8.01 4.621 8.01 4.612 8.008-4.612-8.008-4.62zm-.801 10.165l-4.646-2.675-3.363-1.936v9.392l4.645 2.675 3.364 1.937v-9.393zM20.02 38.33l11.743-6.704 5.662-3.234-8.009-4.612-9.205 5.303-8.203 4.724 8.012 4.522z" fill="#FF2D20"/></svg>
